<svg width="223" height="65" viewBox="0 0 223 65" fill="none" xmlns="http://www.w3.org/2000/svg">
<path d="M19.9162 16.7133H19.5H17.9334C17.3135 16.7133 16.6959 16.7894 16.0945 16.9397C15.3688 17.1211 14.674 17.4089 14.0326 17.7938L13.6319 18.0342C12.8801 18.4853 12.1865 19.0268 11.5666 19.6467L11.5251 19.6882C10.5176 20.6957 9.71164 21.8862 9.15039 23.1958L9.02639 23.4851C8.67641 24.3017 8.41217 25.1525 8.23793 26.0237L7.83347 28.046C7.6117 29.1548 7.5 30.2829 7.5 31.4137C7.5 32.94 7.70348 34.4594 8.10507 35.9319L9 39.2133L9.69788 41.0744C10.2265 42.484 11.0508 43.7641 12.1153 44.8287C13.0306 45.744 14.1066 46.4829 15.2894 47.0086L15.5999 47.1466C17.1824 47.8499 18.8948 48.2133 20.6264 48.2133H20.7786C21.9206 48.2133 23.0571 48.0542 24.1552 47.7404L24.347 47.6856C25.4424 47.3727 26.4825 46.8916 27.4304 46.2597L28.1253 45.7965C28.7042 45.4105 29.2133 44.929 29.6307 44.3723L29.8292 44.1078C30.2703 43.5196 30.8424 43.0421 31.5 42.7133L31.7163 42.6052C32.2317 42.3475 32.8 42.2133 33.3762 42.2133C34.109 42.2133 34.8254 42.4302 35.4351 42.8367L36 43.2133L36.1834 43.3509C37.377 44.2461 38.7682 44.8414 40.2398 45.0866C40.7457 45.171 41.2578 45.2133 41.7707 45.2133H42.2118C43.065 45.2133 43.9127 45.0758 44.7221 44.806L45.8292 44.4369C46.2703 44.2899 46.6712 44.0421 47 43.7133C47.3288 43.3845 47.7297 43.1368 48.1708 42.9897L48.3889 42.917C48.7937 42.7821 49.2175 42.7133 49.6441 42.7133H49.8657C50.287 42.7133 50.7067 42.765 51.1154 42.8672L51.4893 42.9607C52.1507 43.126 52.7546 43.468 53.2367 43.95C53.4118 44.1251 53.5692 44.3171 53.7066 44.5232L53.9011 44.8149C54.2964 45.408 54.8094 45.9196 55.4025 46.315C55.7973 46.5782 56.2281 46.7894 56.6782 46.9394C57.2225 47.1208 57.7925 47.2133 58.3663 47.2133H58.9004C59.6287 47.2133 60.3522 47.0959 61.0432 46.8656L61.2546 46.7951C61.418 46.7407 61.5773 46.6747 61.7314 46.5976L62.013 46.4569C62.3332 46.2967 62.6864 46.2133 63.0445 46.2133C63.6563 46.2133 64.243 46.4564 64.6756 46.8889L64.7185 46.9318C64.9049 47.1183 65.1202 47.2734 65.3561 47.3914L65.6439 47.5353C65.8798 47.6532 66.0951 47.8084 66.2815 47.9948C66.7415 48.4549 67.3655 48.7133 68.0161 48.7133H68.1554C68.7061 48.7133 69.2445 48.5503 69.7027 48.2448L70.3451 47.8166C70.4481 47.7479 70.5441 47.6692 70.6317 47.5817C70.8727 47.3406 71.1747 47.1697 71.5053 47.087L72.7777 46.7689C72.9254 46.732 73.0769 46.7133 73.2291 46.7133C73.7227 46.7133 74.1961 46.9094 74.5451 47.2584L74.7185 47.4318C74.905 47.6183 75.1202 47.7734 75.3561 47.8914L75.4699 47.9483C75.8185 48.1226 76.2029 48.2133 76.5926 48.2133C76.8624 48.2133 77.1305 48.1698 77.3865 48.0845L77.8244 47.9385C78.257 47.7943 78.6146 47.4842 78.8185 47.0764C78.9379 46.8376 79 46.5744 79 46.3075V45.2133V44.5608C79 44.0182 79.2156 43.4978 79.5993 43.1141C79.8615 42.8518 80.19 42.6658 80.5498 42.5759L81.3846 42.3672C81.7933 42.265 82.213 42.2133 82.6343 42.2133H83.1496C83.7151 42.2133 84.2793 42.2692 84.8339 42.3801L85.3219 42.4777C86.0998 42.6333 86.8396 42.9397 87.4996 43.3798C87.8324 43.6016 88.1424 43.8558 88.4252 44.1386L88.5 44.2133C88.8325 44.5459 89.1971 44.8447 89.5883 45.1056L90.5 45.7133L91.2138 46.1892C91.7365 46.5377 92.294 46.8309 92.8773 47.0643L93.3394 47.2491C94.1061 47.5558 94.9243 47.7133 95.75 47.7133C96.5757 47.7133 97.3939 47.5558 98.1606 47.2491L98.2102 47.2293C99.0612 46.8889 99.8342 46.3791 100.482 45.731L100.5 45.7133L101.336 44.8777C101.444 44.7688 101.535 44.6431 101.604 44.5054C101.847 44.02 102.343 43.7133 102.886 43.7133H104.5C105.14 43.7133 105.754 43.9677 106.207 44.4204L106.5 44.7133L106.679 44.8926C107.223 45.4362 107.851 45.8886 108.538 46.2324C109.176 46.5512 109.858 46.7729 110.561 46.8901L110.852 46.9387C111.942 47.1203 113.055 47.1023 114.138 46.8857L115 46.7133L115.206 46.6618C116.39 46.3658 117.503 45.8361 118.479 45.1038L118.834 44.8376C118.945 44.7549 119.049 44.6644 119.146 44.5669L119.613 44.1004C119.861 43.8526 120.197 43.7133 120.547 43.7133C121.116 43.7133 121.621 44.0773 121.801 44.617L121.955 45.0787C121.985 45.1683 122.021 45.2557 122.063 45.3403L122.108 45.4297C122.359 45.9315 122.799 46.313 123.331 46.4904C123.765 46.6351 124.235 46.6351 124.669 46.4904L125.236 46.3012C125.412 46.2427 125.583 46.1718 125.749 46.0891L126.5 45.7133L128 44.7133L128.905 44.1099C129.3 43.8467 129.728 43.6373 130.178 43.4873C130.723 43.3058 131.293 43.2133 131.866 43.2133H133H134.866C135.287 43.2133 135.707 43.265 136.115 43.3672L136.389 43.4356C137.116 43.6173 137.78 43.9932 138.31 44.5231C138.764 44.977 139.106 45.5304 139.309 46.1393L139.319 46.1704C139.439 46.5307 139.607 46.8735 139.817 47.1895L140.203 47.7674C140.4 48.064 140.627 48.3403 140.879 48.5923L141.277 48.9908C141.425 49.1382 141.595 49.2609 141.781 49.3541L141.859 49.393C142.27 49.5981 142.744 49.6318 143.18 49.4868C143.696 49.3146 144.101 48.9094 144.273 48.393L144.394 48.0302C144.464 47.8199 144.562 47.6199 144.685 47.4354L145.241 46.6021C145.411 46.3473 145.644 46.1413 145.918 46.0044C146.294 45.8166 146.724 45.7693 147.131 45.8712L147.862 46.0539C148.284 46.1594 148.685 46.3367 149.047 46.578L150 47.2133L150.714 47.6892C151.237 48.0377 151.794 48.3309 152.377 48.5643C153.449 48.993 154.593 49.2133 155.748 49.2133H156.372C156.79 49.2133 157.206 49.1721 157.616 49.0901L158.455 48.9223C159.136 48.7861 159.762 48.4511 160.254 47.9598C160.417 47.7959 160.597 47.6486 160.79 47.52L162 46.7133C162.658 46.3845 163.383 46.2133 164.118 46.2133H165.055C165.35 46.2133 165.643 46.2609 165.922 46.3541C166.612 46.5841 167.183 47.0788 167.508 47.7295L167.554 47.8215C167.844 48.4004 168.313 48.8698 168.892 49.1592L169.171 49.2987C169.716 49.5714 170.317 49.7133 170.927 49.7133H171.856C172.283 49.7133 172.706 49.6446 173.111 49.5096C173.696 49.3148 174.227 48.9865 174.663 48.5508L175.5 47.7133C176.152 47.0613 176.983 46.6168 177.887 46.436L178.443 46.3248C178.813 46.2507 179.19 46.2133 179.568 46.2133H179.634C180.207 46.2133 180.777 46.3058 181.322 46.4873L181.343 46.4943C181.779 46.6397 182.194 46.8425 182.576 47.0975C183.185 47.5034 183.873 47.7755 184.595 47.8958L185.189 47.9948C186.057 48.1395 186.943 48.1395 187.811 47.9948L189.111 47.7782C189.37 47.735 189.625 47.6716 189.874 47.5886L189.994 47.5487C190.656 47.3282 191.257 46.9566 191.75 46.4633L191.837 46.3759C192.273 45.9402 192.804 45.6119 193.389 45.417L193.614 45.3422C193.87 45.2568 194.138 45.2133 194.407 45.2133C194.797 45.2133 195.181 45.3041 195.53 45.4784L195.593 45.5096C195.862 45.6446 196.109 45.8221 196.322 46.0354L196.5 46.2133C197.162 46.8757 197.927 47.4269 198.765 47.8458L199.189 48.0578C200.059 48.4929 200.983 48.81 201.937 49.0008L202.354 49.0842C202.784 49.1701 203.221 49.2133 203.658 49.2133H203.968C204.97 49.2133 205.954 48.9408 206.814 48.4249C207.593 47.9577 208.244 47.306 208.712 46.5273L208.806 46.3707C209.26 45.6134 209.5 44.7468 209.5 43.8636C209.5 43.1072 209.324 42.3611 208.986 41.6845L208.5 40.7133L207.861 39.755C207.626 39.4018 207.5 38.9868 207.5 38.5623C207.5 38.3312 207.537 38.1016 207.61 37.8823L207.776 37.3842C207.923 36.943 208.171 36.5421 208.5 36.2133L209.336 35.3777C209.444 35.2688 209.57 35.1782 209.708 35.1094L209.919 35.0039C210.275 34.8258 210.5 34.4618 210.5 34.0637C210.5 33.8363 210.426 33.615 210.29 33.433L209.555 32.4536C209.189 31.9647 208.731 31.5516 208.207 31.2372L207.692 30.9287C206.904 30.456 206.035 30.1358 205.128 29.9847C204.056 29.806 202.958 29.8683 201.913 30.1669L200.71 30.5104C200.24 30.6449 199.793 30.8516 199.385 31.1231C198.802 31.5117 198.313 32.025 197.953 32.6258L197.455 33.4547C197.161 33.9442 196.702 34.3126 196.161 34.4931C195.729 34.6369 195.266 34.6547 194.824 34.5444L194.186 34.3848C193.737 34.2726 193.327 34.0405 193 33.7133C192.673 33.3862 192.441 32.9762 192.329 32.5273L192.203 32.0261C192.069 31.4897 191.829 30.9855 191.497 30.5431C190.857 29.6896 189.913 29.1155 188.86 28.9401L188.014 28.7989C187.672 28.742 187.326 28.7133 186.979 28.7133H186.899C185.975 28.7133 185.059 28.8897 184.201 29.2329L183 29.7133L181.639 30.2578C180.881 30.5608 180.097 30.7939 179.297 30.9539C178.435 31.1264 177.557 31.2133 176.677 31.2133H173.5C172.903 31.2133 172.373 30.8312 172.184 30.2646L172.092 29.989C172.031 29.8064 172 29.6152 172 29.4228V25.2133V25.0039C172 24.2332 171.507 23.5489 170.776 23.3052C170.593 23.2444 170.402 23.2133 170.209 23.2133H169.707C169.254 23.2133 168.82 23.3932 168.5 23.7133C168.18 24.0335 168 24.4677 168 24.9204V29.4043C168 29.9001 167.72 30.3534 167.276 30.5751C167.095 30.666 166.894 30.7133 166.691 30.7133H165.464C165.159 30.7133 164.858 30.7843 164.585 30.9206L164.42 31.0032C164.147 31.1396 163.926 31.3608 163.79 31.6335C163.606 32.0015 163.27 32.2708 162.871 32.3706L162.481 32.4682C161.856 32.6243 161.195 32.5098 160.659 32.1527L160 31.7133L158.764 31.0951C157.604 30.5152 156.325 30.2133 155.028 30.2133H154.933C154.313 30.2133 153.696 30.2894 153.095 30.4397L152.988 30.4662C152.333 30.6301 151.706 30.89 151.126 31.2376L149.898 31.9745C149.638 32.1308 149.34 32.2133 149.036 32.2133H148.809C148.313 32.2133 147.86 31.9332 147.638 31.4897C147.547 31.308 147.5 31.1075 147.5 30.9043V29.7122C147.5 29.3801 147.526 29.0486 147.578 28.7205L148.924 20.195C148.973 19.8818 148.924 19.5608 148.782 19.2771C148.601 18.9161 148.285 18.6416 147.902 18.514L147.296 18.312C147.1 18.2466 146.895 18.2133 146.688 18.2133H146.419C145.856 18.2133 145.341 18.5315 145.089 19.0352C145.03 19.1534 144.987 19.279 144.961 19.4086L144.5 21.7133L144.174 23.6666C144.063 24.3344 143.68 24.9264 143.117 25.302C142.715 25.5702 142.242 25.7133 141.758 25.7133H140.5H140.233C139.085 25.7133 137.945 25.5283 136.856 25.1655L136.053 24.8977C135.686 24.7753 135.337 24.6046 135.015 24.3899C134.351 23.9474 133.822 23.331 133.484 22.6081L130.866 16.9984C130.627 16.4849 130.251 16.0471 129.779 15.7328L129.41 15.4869C129.143 15.3085 128.828 15.2133 128.507 15.2133H128.419C127.856 15.2133 127.341 15.5315 127.089 16.0352C127.03 16.1534 126.987 16.279 126.961 16.4086L126 21.2133L124.722 28.0307C124.577 28.8011 124.203 29.5099 123.649 30.0641L123.501 30.2128C123.171 30.542 122.77 30.79 122.328 30.9372C121.787 31.1175 121.206 31.1399 120.653 31.0015L120.475 30.9571C119.837 30.7976 119.254 30.4677 118.789 30.0027L118.69 29.9035C118.236 29.4496 117.683 29.1077 117.074 28.9047L116.079 28.573C115.364 28.3348 114.616 28.2133 113.863 28.2133C113.29 28.2133 112.719 28.2836 112.163 28.4226L111.943 28.4776C111.316 28.6343 110.709 28.8591 110.131 29.1479L109.265 29.5809C108.427 29.9998 107.662 30.551 107 31.2133L106.241 31.9723C106.081 32.1319 105.897 32.2648 105.695 32.3658C105.247 32.5901 104.733 32.6465 104.246 32.5249L103.638 32.3728C103.216 32.2673 102.815 32.09 102.453 31.8486L101.883 31.4686C101.628 31.2988 101.391 31.1043 101.175 30.8879C100.729 30.4428 100.199 30.0928 99.6142 29.859L98.8624 29.5583C98.2891 29.329 97.6928 29.1621 97.0838 29.0606L96.1239 28.9007C95.3808 28.7768 94.6214 28.789 93.8827 28.9368C92.9725 29.1188 92.1145 29.5024 91.3719 30.0594L90.5 30.7133L89.727 31.2287C89.2774 31.5284 88.7018 31.5642 88.2185 31.3226C88.0738 31.2502 87.9417 31.155 87.8272 31.0406L87.5585 30.7718C87.19 30.4033 86.7505 30.1135 86.2667 29.92L85.2219 29.5021C84.745 29.3113 84.2361 29.2133 83.7225 29.2133C82.9254 29.2133 82.1461 29.4493 81.4829 29.8914L81 30.2133L80.3247 30.551C80.1112 30.6577 79.8757 30.7133 79.637 30.7133C79.2291 30.7133 78.838 30.5513 78.5496 30.2629L78.5 30.2133L78.1756 29.8889C77.743 29.4564 77.1563 29.2133 76.5445 29.2133H76.4635C76.1587 29.2133 75.8581 29.2843 75.5854 29.4206C75.2054 29.6106 74.8973 29.9187 74.7073 30.2987C74.571 30.5714 74.5 30.872 74.5 31.1769V32.3598C74.5 32.5862 74.4101 32.8033 74.25 32.9633C74.0899 33.1234 73.8728 33.2133 73.6464 33.2133H73.2815C73.095 33.2133 72.9098 33.1833 72.733 33.1243L72.5607 33.0669C71.8815 32.8405 71.3201 32.3536 71 31.7133L70.7576 31.2286C70.587 30.8873 70.3624 30.5758 70.0926 30.306L69.9059 30.1192C69.639 29.8523 69.3136 29.6512 68.9555 29.5318L68.5026 29.3809C68.1808 29.2736 67.8296 29.2986 67.5262 29.4503C67.1922 29.6172 66.9479 29.9218 66.8573 30.284L66.5 31.7133L65.6937 34.1322C65.5654 34.5171 65.3759 34.8788 65.1325 35.2034L64.5008 36.0456C64.1855 36.4659 63.6908 36.7133 63.1653 36.7133C63.0554 36.7133 62.9457 36.7025 62.8379 36.6809L61.8543 36.4842C60.9712 36.3076 60.1602 35.8735 59.5234 35.2367L59.2841 34.9974C59.0959 34.8093 58.9393 34.592 58.8203 34.354C58.6111 33.9355 58.5247 33.4662 58.5713 33.0006L58.8807 29.9063C58.9541 29.1722 58.6163 28.4575 58.0025 28.0483L57.9675 28.025C57.6627 27.8218 57.3045 27.7133 56.9381 27.7133H56.864C56.6246 27.7133 56.3885 27.7691 56.1745 27.8761C55.7489 28.0889 55.4454 28.4862 55.3521 28.9528L55 30.7133L54.7252 31.5377C54.581 31.9703 54.2709 32.3279 53.863 32.5318C53.6243 32.6512 53.361 32.7133 53.0941 32.7133H52.8427C52.6151 32.7133 52.3883 32.6854 52.1675 32.6302L51.2407 32.3985C50.756 32.2773 50.3134 32.0267 49.9601 31.6735C49.6575 31.3709 49.4296 31.002 49.2942 30.596L49.2732 30.5331C49.0946 29.9972 48.7701 29.5218 48.3362 29.1602L47.1963 28.2103C46.4058 27.5515 45.4989 27.0463 44.5226 26.7209L44.0789 26.573C43.3643 26.3348 42.616 26.2133 41.8627 26.2133C41.2897 26.2133 40.7189 26.2836 40.163 26.4226L39.9427 26.4776C39.3161 26.6343 38.7085 26.8591 38.1308 27.1479L38 27.2133L37.5027 27.5449C36.8392 27.9872 36.1045 28.3122 35.3309 28.5056L34.9988 28.5886C34.6675 28.6715 34.3273 28.7133 33.9859 28.7133H33.559C33.1914 28.7133 32.8288 28.6277 32.5 28.4633C32.1712 28.2989 31.8852 28.0602 31.6646 27.7661L30.9146 26.7661C30.6388 26.3983 30.3966 26.0065 30.191 25.5953L29 23.2133L27.5 20.2133C27.1723 19.558 26.6793 18.9996 26.0697 18.5932L25.5 18.2133L24.811 17.8688C23.9409 17.4338 23.0167 17.1167 22.0627 16.9259C21.356 16.7845 20.637 16.7133 19.9162 16.7133Z" fill="white" stroke="white" stroke-width="7"/>
<path d="M23.3213 47.4181C21.523 47.7883 19.8292 47.7668 18.2399 47.3535C16.646 46.918 15.1925 46.1527 13.8793 45.0577C12.5662 43.9627 11.4447 42.5621 10.5148 40.8559C9.58497 39.1497 8.89378 37.1976 8.44124 34.9997C8.13955 33.5345 7.98478 32.1084 7.97693 30.7215C7.96907 29.3346 8.1039 28.0224 8.38139 26.785C8.65432 25.5254 9.06339 24.3651 9.60861 23.304C10.1715 22.2162 10.8505 21.2432 11.6458 20.3852C12.4634 19.5226 13.404 18.8083 14.4676 18.2421C15.5489 17.6492 16.7334 17.2202 18.0211 16.9551C19.0423 16.7448 20.0753 16.6478 21.1201 16.6641C22.1603 16.6582 23.1926 16.8391 24.2171 17.2067C25.2639 17.5698 26.2632 18.2087 27.2153 19.1235C27.4523 19.3755 27.5359 19.6129 27.466 19.8355C27.4138 20.0314 27.2995 20.2632 27.1232 20.531C26.8673 20.8614 26.624 21.085 26.3935 21.2019C26.1585 21.2966 25.9094 21.2669 25.6462 21.1128C24.9723 20.6498 24.2524 20.3005 23.4865 20.0648C22.7382 19.8023 21.9549 19.6511 21.1368 19.6113C20.3362 19.5447 19.4919 19.6029 18.6039 19.7857C17.6715 19.9777 16.8108 20.2937 16.0221 20.7338C15.2509 21.1472 14.5516 21.6846 13.9241 22.3461C13.3188 23.003 12.803 23.7571 12.3766 24.6086C11.9678 25.4333 11.6485 26.3553 11.4187 27.3746C11.2111 28.3893 11.1128 29.4857 11.1239 30.6636C11.1527 31.8148 11.3019 33.0454 11.5716 34.3552C11.9738 36.3089 12.5413 37.9971 13.2739 39.42C14.0242 40.816 14.893 41.9447 15.8803 42.8059C16.8853 43.6404 17.9643 44.2166 19.1174 44.5346C20.2882 44.8258 21.4952 44.8434 22.7385 44.5875C23.6487 44.4 24.4627 44.082 25.1803 43.6334C25.8979 43.1848 26.5283 42.65 27.0716 42.0291C27.637 41.4035 28.1268 40.7473 28.5407 40.0603C28.9547 39.3734 29.3155 38.709 29.623 38.0671C29.7634 37.7374 29.9603 37.5696 30.2136 37.5637C30.4846 37.531 30.8117 37.6025 31.195 37.7782C31.6005 37.9492 31.8461 38.1301 31.9316 38.3208C32.0393 38.5069 32.0318 38.7514 31.9091 39.0544C31.3972 40.502 30.7178 41.8106 29.8709 42.9801C29.024 44.1496 28.0426 45.1153 26.9267 45.8774C25.833 46.6348 24.6312 47.1484 23.3213 47.4181Z" fill="#159472"/>
<path d="M40.5997 44.6741C39.0995 44.4383 37.8123 43.8688 36.7382 42.9657C35.69 42.0437 34.9356 40.8582 34.4751 39.4091C34.0146 37.9599 33.9322 36.2949 34.2279 34.414C34.4356 33.0929 34.816 31.9137 35.3691 30.8764C35.9223 29.839 36.6093 28.9719 37.4302 28.2749C38.2734 27.5815 39.2005 27.0847 40.2114 26.7848C41.2222 26.4848 42.2986 26.4246 43.4406 26.6041C44.9408 26.84 46.2115 27.4413 47.2527 28.408C48.2974 29.3524 49.05 30.5491 49.5105 31.9982C49.971 33.4474 50.0675 35.0228 49.8 36.7246C49.631 37.7994 49.3494 38.7876 48.9553 39.6893C48.5646 40.5687 48.0743 41.352 47.4844 42.0394C46.9169 42.7303 46.2662 43.2934 45.5324 43.7288C44.8209 44.1676 44.0393 44.4692 43.1874 44.6335C42.3579 44.8014 41.4954 44.815 40.5997 44.6741ZM41.0221 41.9871C41.7387 42.0998 42.4127 42.0451 43.0441 41.8232C43.6756 41.6012 44.2481 41.2438 44.7615 40.7509C45.2785 40.2356 45.7105 39.6037 46.0577 38.8552C46.4307 38.0878 46.6929 37.2227 46.8443 36.2599C47.0344 35.0507 47.0018 33.9442 46.7466 32.9404C46.4914 31.9366 46.046 31.1209 45.4105 30.4932C44.7784 29.8432 43.981 29.4425 43.0182 29.2911C42.324 29.182 41.65 29.2366 40.9962 29.455C40.3458 29.6511 39.7622 30.0068 39.2452 30.5221C38.7317 31.015 38.2903 31.6339 37.9207 32.3789C37.5771 33.105 37.3314 33.9383 37.1836 34.8787C36.9864 36.1327 37.0137 37.2727 37.2654 38.2989C37.543 39.3063 37.9978 40.135 38.6298 40.785C39.2619 41.4351 40.0593 41.8358 41.0221 41.9871Z" fill="#159472"/>
<path d="M58.0196 46.5346C57.0791 46.3872 56.2563 46.0746 55.5511 45.5969C54.8683 45.1227 54.3792 44.438 54.0837 43.5427C53.7881 42.6474 53.7475 41.5168 53.9617 40.1509L55.7474 28.764C55.7931 28.4729 55.9384 28.2777 56.1834 28.1785C56.4543 28.0604 56.8249 28.0382 57.2952 28.1119C57.7878 28.1892 58.145 28.3255 58.3667 28.5209C58.592 28.6939 58.6818 28.9259 58.6361 29.2171L56.8925 40.3352C56.7766 41.0741 56.7584 41.7022 56.8379 42.2195C56.9433 42.7178 57.1558 43.1182 57.4755 43.4207C57.7987 43.7009 58.2514 43.8866 58.8336 43.9779C59.5726 44.0938 60.2942 43.9546 60.9984 43.5602C61.7251 43.1694 62.4144 42.5778 63.0664 41.7852C63.7219 40.9703 64.3236 39.9863 64.8716 38.8332C65.4419 37.6837 65.9514 36.4099 66.4001 35.0119L67.1007 30.5445C67.1463 30.2534 67.2917 30.0582 67.5367 29.959C67.8076 29.8409 68.1893 29.8204 68.682 29.8977C69.1746 29.975 69.5318 30.1113 69.7536 30.3067C69.9788 30.4796 70.0686 30.7117 70.023 31.0028L67.9949 43.9347C67.9352 44.3154 67.9102 44.6212 67.9198 44.8522C67.933 45.0608 67.9886 45.2186 68.0865 45.3257C68.2068 45.4364 68.3677 45.5075 68.5693 45.5391C68.7484 45.5672 68.9122 45.547 69.0606 45.4785C69.2349 45.3911 69.418 45.2477 69.6099 45.0484C69.8241 44.8526 70.0454 44.6119 70.2737 44.3265C70.4173 44.1426 70.5916 44.0552 70.7966 44.0644C71.0052 44.0512 71.2298 44.1553 71.4704 44.3765C71.7216 44.5307 71.8761 44.7155 71.9341 44.9311C72.0144 45.1502 71.9828 45.3517 71.8393 45.5357C71.4946 46.1241 71.0951 46.6235 70.6407 47.0341C70.1897 47.4222 69.7098 47.7026 69.201 47.8752C68.711 48.0737 68.186 48.129 67.6262 48.0412C67.0888 47.9569 66.6308 47.8048 66.2523 47.5848C65.8927 47.3908 65.6014 47.1271 65.3783 46.7939C65.1812 46.4417 65.0505 46.0312 64.9864 45.5623C64.9258 45.071 64.9429 44.523 65.0377 43.9184L65.3518 41.6962C64.8025 42.7114 64.2125 43.5481 63.5815 44.2063C62.973 44.868 62.3408 45.3883 61.6848 45.7672C61.0547 46.1273 60.4216 46.3607 59.7854 46.4674C59.1456 46.5965 58.5571 46.6189 58.0196 46.5346Z" fill="#159472"/>
<path d="M76.624 47.7233C76.148 47.7233 75.7853 47.644 75.536 47.4853C75.3093 47.3493 75.196 47.134 75.196 46.8393V30.5873C75.196 30.2927 75.3093 30.0773 75.536 29.9413C75.7853 29.7827 76.148 29.7033 76.624 29.7033C77.1227 29.7033 77.4967 29.7827 77.746 29.9413C77.9953 30.0773 78.12 30.2927 78.12 30.5873V35.4493C78.5053 34.4067 78.936 33.5113 79.412 32.7633C79.888 32.0153 80.3867 31.4147 80.908 30.9613C81.4293 30.4853 81.9393 30.134 82.438 29.9073C82.9593 29.6807 83.458 29.5673 83.934 29.5673C84.5007 29.5673 85.056 29.692 85.6 29.9413C86.1667 30.168 86.586 30.4513 86.858 30.7913C87.0167 30.95 87.0847 31.154 87.062 31.4033C87.062 31.63 86.96 31.902 86.756 32.2193C86.552 32.5367 86.3253 32.7407 86.076 32.8313C85.8267 32.8993 85.566 32.8653 85.294 32.7293C85.022 32.5933 84.75 32.48 84.478 32.3893C84.2287 32.2987 83.934 32.2533 83.594 32.2533C83.0727 32.2533 82.5287 32.4913 81.962 32.9673C81.3953 33.4433 80.8627 34.1233 80.364 35.0073C79.8653 35.8913 79.412 36.9453 79.004 38.1693C78.6187 39.3707 78.324 40.6853 78.12 42.1133V46.8393C78.12 47.134 77.9953 47.3493 77.746 47.4853C77.4967 47.644 77.1227 47.7233 76.624 47.7233Z" fill="#159472"/>
<path d="M96.0779 47.2939C95.1729 47.3485 94.293 47.2539 93.4381 47.0103C92.6072 46.7879 91.8507 46.4815 91.1686 46.0912C90.5092 45.6995 89.9728 45.2777 89.5596 44.8258C89.3889 44.6317 89.3067 44.3982 89.3129 44.1254C89.3192 43.8525 89.4619 43.5828 89.741 43.3161C89.9989 43.0735 90.2283 42.9234 90.4292 42.8659C90.6301 42.8084 90.8618 42.8852 91.1243 43.0965C91.9091 43.685 92.6985 44.1596 93.4923 44.5205C94.3074 44.8574 95.1109 45.0019 95.9028 44.9542C96.5137 44.9174 97.0512 44.7941 97.5155 44.5844C98.0009 44.3508 98.3791 44.0328 98.6501 43.6304C98.9423 43.2041 99.0706 42.6967 99.0352 42.1085C98.9942 41.4297 98.7465 40.8997 98.2921 40.5183C97.8377 40.137 97.2629 39.831 96.5677 39.6005C95.8952 39.3685 95.1781 39.1506 94.4165 38.9468C93.6535 38.7203 92.921 38.4352 92.219 38.0915C91.5383 37.7238 90.9639 37.2362 90.4958 36.6286C90.0277 36.021 89.763 35.2081 89.7016 34.19C89.6456 33.2623 89.8334 32.4222 90.2649 31.6695C90.719 30.9154 91.3636 30.3089 92.1989 29.8498C93.0553 29.3667 94.0718 29.0896 95.2484 29.0187C96.0629 28.9696 96.8163 29.0377 97.5088 29.223C98.2012 29.4083 98.8185 29.6663 99.3607 29.9969C99.9016 30.3049 100.332 30.665 100.652 31.0771C100.895 31.335 101 31.5671 100.967 31.7735C100.956 31.9785 100.811 32.2143 100.532 32.4809C100.276 32.7461 100.034 32.8856 99.8082 32.8992C99.582 32.9129 99.3383 32.8254 99.0771 32.6368C98.4828 32.1958 97.884 31.8685 97.2807 31.6551C96.6987 31.4177 96.0457 31.3209 95.3217 31.3645C94.5751 31.4096 93.9178 31.6195 93.35 31.9944C92.8049 32.3678 92.5568 32.9619 92.606 33.7764C92.6442 34.4099 92.8785 34.9067 93.3089 35.2668C93.762 35.6255 94.3248 35.9208 94.9973 36.1527C95.6925 36.3833 96.4216 36.6118 97.1846 36.8383C97.9689 37.0408 98.7013 37.3259 99.382 37.6936C100.084 38.0373 100.658 38.5249 101.105 39.1565C101.573 39.7641 101.838 40.577 101.899 41.5951C101.955 42.5228 101.77 43.4082 101.344 44.2514C100.94 45.0705 100.3 45.7676 99.4268 46.3426C98.5517 46.8949 97.4355 47.212 96.0779 47.2939Z" fill="#159472"/>
<path d="M112.418 46.8593C110.899 46.8593 109.596 46.5193 108.508 45.8393C107.42 45.1367 106.581 44.162 105.992 42.9153C105.425 41.6687 105.142 40.2293 105.142 38.5973C105.142 37.2147 105.346 35.9227 105.754 34.7213C106.162 33.4973 106.74 32.4207 107.488 31.4913C108.259 30.562 109.177 29.848 110.242 29.3493C111.33 28.828 112.554 28.5673 113.914 28.5673C114.889 28.5673 115.773 28.726 116.566 29.0433C117.359 29.3607 117.983 29.848 118.436 30.5053C118.912 31.14 119.15 31.956 119.15 32.9533C119.15 33.8147 118.946 34.608 118.538 35.3333C118.13 36.0587 117.563 36.7047 116.838 37.2713C116.135 37.838 115.297 38.348 114.322 38.8013C113.37 39.232 112.327 39.5947 111.194 39.8893C110.083 40.184 108.916 40.422 107.692 40.6033L107.59 38.2573C108.361 38.1213 109.143 37.9513 109.936 37.7473C110.752 37.5433 111.523 37.294 112.248 36.9993C112.996 36.7047 113.653 36.376 114.22 36.0133C114.809 35.6507 115.263 35.2427 115.58 34.7893C115.92 34.3133 116.09 33.8033 116.09 33.2593C116.09 32.534 115.841 32.024 115.342 31.7293C114.843 31.412 114.231 31.2533 113.506 31.2533C112.758 31.2533 112.055 31.4233 111.398 31.7633C110.741 32.0807 110.163 32.5453 109.664 33.1573C109.188 33.7693 108.814 34.4947 108.542 35.3333C108.27 36.1493 108.134 37.056 108.134 38.0533C108.134 39.368 108.315 40.4787 108.678 41.3853C109.041 42.2693 109.562 42.9493 110.242 43.4253C110.922 43.9013 111.738 44.1393 112.69 44.1393C113.483 44.1393 114.141 44.0147 114.662 43.7653C115.206 43.4933 115.682 43.1307 116.09 42.6773C116.498 42.224 116.917 41.748 117.348 41.2493C117.62 40.9093 117.903 40.7507 118.198 40.7733C118.493 40.796 118.787 40.932 119.082 41.1813C119.399 41.4307 119.592 41.68 119.66 41.9293C119.751 42.1787 119.705 42.4507 119.524 42.7453C118.889 43.6973 118.198 44.4793 117.45 45.0913C116.702 45.7033 115.909 46.1453 115.07 46.4173C114.231 46.712 113.347 46.8593 112.418 46.8593Z" fill="#159472"/>
<path d="M123.693 46.0466C122.709 45.8856 122.268 45.4919 122.37 44.8656L127.031 16.3783C127.082 16.0652 127.242 15.8616 127.51 15.7677C127.782 15.6513 128.164 15.6334 128.656 15.7139C129.058 15.7798 129.37 15.9112 129.59 16.108C129.814 16.2825 130.013 16.5446 130.185 16.8944L141.687 42.6171L145.486 19.3978C145.537 19.0846 145.697 18.8811 145.965 18.7871C146.236 18.6708 146.618 18.6529 147.11 18.7334C148.095 18.8944 148.537 19.2769 148.438 19.8809L143.778 48.3681C143.726 48.6813 143.565 48.896 143.293 49.0124C143.021 49.1287 142.651 49.1484 142.181 49.0716C141.823 49.013 141.553 48.9113 141.37 48.7665C141.187 48.6218 141.005 48.3279 140.825 47.885L129.177 21.7939L125.323 45.3487C125.272 45.6619 125.11 45.8766 124.839 45.9929C124.567 46.1093 124.185 46.1272 123.693 46.0466Z" fill="#159472"/>
<path d="M156.716 48.8803C155.215 49.1172 153.816 48.9711 152.516 48.442C151.235 47.887 150.152 46.9909 149.269 45.7536C148.385 44.5163 147.794 42.9574 147.497 41.0767C147.289 39.7557 147.288 38.5166 147.496 37.3595C147.703 36.2023 148.09 35.1659 148.657 34.2503C149.246 33.3311 149.975 32.5734 150.845 31.9771C151.715 31.3808 152.72 30.9925 153.862 30.8122C155.362 30.5753 156.756 30.7567 158.044 31.3565C159.329 31.9339 160.413 32.8412 161.297 34.0785C162.181 35.3157 162.757 36.7852 163.025 38.4867C163.195 39.5614 163.231 40.5884 163.133 41.5676C163.032 42.5245 162.806 43.4206 162.456 44.2561C162.129 45.0881 161.683 45.824 161.118 46.4639C160.576 47.1002 159.925 47.6276 159.165 48.0459C158.428 48.4607 157.611 48.7388 156.716 48.8803ZM156.291 46.1936C157.008 46.0804 157.632 45.8212 158.165 45.4158C158.697 45.0104 159.132 44.4943 159.469 43.8673C159.803 43.218 160.02 42.4839 160.12 41.6649C160.239 40.82 160.222 39.9162 160.07 38.9535C159.879 37.7445 159.508 36.7016 158.956 35.8249C158.405 34.9482 157.73 34.3089 156.933 33.9071C156.131 33.4829 155.249 33.3468 154.286 33.4989C153.592 33.6085 152.968 33.8678 152.413 34.2767C151.854 34.6632 151.408 35.1811 151.075 35.8304C150.738 36.4573 150.508 37.182 150.386 38.0045C150.282 38.8011 150.304 39.6696 150.453 40.6099C150.651 41.8637 151.027 42.9402 151.582 43.8393C152.156 44.7124 152.844 45.3611 153.645 45.7853C154.446 46.2095 155.329 46.3456 156.291 46.1936Z" fill="#159472"/>
<path d="M170.802 49.2619C169.943 49.197 169.232 48.9728 168.67 48.5893C168.131 48.2076 167.74 47.6666 167.497 46.9663C167.255 46.266 167.17 45.43 167.244 44.4581L168.023 34.1515L165.412 33.9541C165.073 33.9285 164.832 33.808 164.689 33.5926C164.569 33.379 164.528 33.0235 164.565 32.5263C164.605 32.0064 164.699 31.6612 164.848 31.4906C165.022 31.2992 165.278 31.2163 165.617 31.2419L168.228 31.4392L168.75 24.5229C168.773 24.2291 168.902 24.0229 169.138 23.9044C169.399 23.765 169.778 23.714 170.275 23.7516C170.772 23.7892 171.139 23.8965 171.376 24.0735C171.614 24.2279 171.722 24.452 171.7 24.7459L171.177 31.6621L175.449 31.985C175.788 32.0106 176.018 32.1303 176.138 32.3439C176.283 32.5367 176.335 32.893 176.296 33.4129C176.258 33.9101 176.153 34.2545 175.979 34.4459C175.828 34.6391 175.583 34.7229 175.244 34.6973L170.972 34.3744L170.216 44.3759C170.157 45.1669 170.216 45.7397 170.393 46.0941C170.594 46.4502 170.909 46.6445 171.338 46.677C171.813 46.7128 172.254 46.5871 172.662 46.2997C173.093 46.014 173.54 45.5136 174.003 44.7985C174.154 44.6053 174.332 44.5051 174.537 44.4979C174.744 44.4681 175.001 44.5329 175.307 44.6924C175.634 44.8763 175.833 45.0959 175.905 45.3514C176.001 45.5859 175.984 45.812 175.854 46.0294C175.474 46.8418 175.015 47.5004 174.477 48.0053C173.963 48.4893 173.391 48.8325 172.762 49.035C172.156 49.2392 171.502 49.3148 170.802 49.2619Z" fill="#159472"/>
<path d="M189.322 47.3918C187.876 47.8565 186.531 47.9316 185.287 47.6172C184.036 47.2812 182.94 46.6099 181.997 45.6033C181.076 44.5899 180.366 43.3063 179.867 41.7526C179.444 40.4362 179.242 39.1438 179.263 37.8752C179.277 36.5851 179.498 35.3832 179.926 34.2696C180.375 33.149 181.031 32.1883 181.892 31.3876C182.768 30.5583 183.854 29.9356 185.149 29.5195C186.077 29.2212 186.967 29.1018 187.819 29.1611C188.672 29.2205 189.414 29.4937 190.047 29.9808C190.694 30.4393 191.171 31.1434 191.476 32.0929C191.739 32.9129 191.788 33.7306 191.621 34.546C191.455 35.3614 191.113 36.1498 190.596 36.9112C190.1 37.6657 189.458 38.4079 188.669 39.1377C187.894 39.839 187.013 40.5034 186.024 41.1307C185.057 41.7511 184.018 42.3349 182.908 42.882L182.093 40.6798C182.785 40.3145 183.478 39.9134 184.171 39.4764C184.885 39.0325 185.543 38.5593 186.143 38.0568C186.765 37.5474 187.29 37.0333 187.719 36.5147C188.169 35.989 188.475 35.4619 188.639 34.9332C188.817 34.376 188.823 33.8384 188.656 33.3205C188.434 32.63 188.041 32.2208 187.476 32.0928C186.904 31.9433 186.273 31.9795 185.582 32.2015C184.87 32.4304 184.253 32.8072 183.731 33.332C183.203 33.8353 182.795 34.4545 182.507 35.1898C182.241 35.9181 182.107 36.7231 182.105 37.6047C182.096 38.4648 182.244 39.3696 182.549 40.3191C182.951 41.5707 183.464 42.5726 184.086 43.3248C184.702 44.0554 185.406 44.5433 186.199 44.7884C186.992 45.0335 187.842 45.0104 188.749 44.719C189.504 44.4763 190.091 44.1565 190.511 43.7596C190.946 43.3341 191.288 42.8432 191.538 42.2868C191.788 41.7303 192.041 41.1489 192.299 40.5423C192.454 40.1354 192.675 39.8976 192.962 39.8291C193.25 39.7605 193.572 39.7998 193.929 39.947C194.307 40.0873 194.567 40.2657 194.708 40.4822C194.871 40.6919 194.911 40.9647 194.828 41.3007C194.515 42.4013 194.096 43.3573 193.571 44.1688C193.047 44.9804 192.427 45.6439 191.711 46.1595C191.003 46.6967 190.207 47.1074 189.322 47.3918Z" fill="#159472"/>
<path d="M201.915 48.5674C201.015 48.4564 200.167 48.2034 199.37 47.8083C198.594 47.4384 197.906 46.9996 197.306 46.4917C196.729 45.9866 196.278 45.4742 195.954 44.9546C195.821 44.7327 195.783 44.4882 195.839 44.221C195.895 43.9538 196.084 43.7146 196.407 43.5032C196.705 43.3115 196.958 43.2057 197.166 43.1856C197.374 43.1656 197.587 43.2833 197.807 43.5388C198.472 44.2603 199.162 44.8706 199.877 45.3699C200.617 45.8495 201.381 46.1378 202.168 46.2349C202.775 46.3098 203.326 46.2864 203.821 46.1647C204.341 46.0233 204.771 45.7794 205.11 45.433C205.475 45.0669 205.694 44.5914 205.766 44.0065C205.849 43.3316 205.702 42.7654 205.324 42.3077C204.947 41.8501 204.437 41.4447 203.796 41.0915C203.177 40.741 202.511 40.3963 201.799 40.0573C201.09 39.6958 200.422 39.2822 199.794 38.8165C199.192 38.3311 198.716 37.7471 198.366 37.0645C198.016 36.3819 197.904 35.5345 198.029 34.5221C198.142 33.5998 198.48 32.8078 199.041 32.1462C199.625 31.4873 200.369 31.0082 201.274 30.7087C202.204 30.3895 203.254 30.302 204.424 30.4463C205.233 30.5461 205.962 30.7502 206.609 31.0584C207.256 31.3666 207.816 31.7326 208.289 32.1563C208.765 32.5576 209.123 32.9899 209.363 33.4534C209.554 33.7511 209.615 33.9984 209.545 34.1954C209.498 34.3951 209.312 34.6006 208.989 34.812C208.689 35.0261 208.426 35.1194 208.201 35.0916C207.976 35.0639 207.753 34.9335 207.53 34.7005C207.026 34.1587 206.497 33.728 205.942 33.4084C205.413 33.0691 204.789 32.8551 204.069 32.7663C203.327 32.6747 202.642 32.7616 202.016 33.0269C201.412 33.295 201.06 33.834 200.96 34.6438C200.882 35.2737 201.022 35.8049 201.38 36.2372C201.76 36.6724 202.26 37.0652 202.879 37.4156C203.52 37.7688 204.196 38.1261 204.905 38.4876C205.639 38.8294 206.308 39.243 206.91 39.7284C207.538 40.1941 208.014 40.7781 208.338 41.4804C208.688 42.163 208.801 43.0105 208.676 44.0228C208.562 44.9452 208.219 45.7822 207.647 46.5338C207.1 47.2656 206.344 47.8348 205.381 48.2412C204.42 48.6251 203.264 48.7339 201.915 48.5674Z" fill="#159472"/>
</svg>
